<svg xmlns="http://www.w3.org/2000/svg" viewBox="0 0 720 720" role="img" aria-labelledby="title desc">
  <title id="title">YKonline Shop logo</title>
  <desc id="desc">Orange and green shopping bag logo with YK cart symbol and the text YKonline Shop.</desc>
  <defs>
    <linearGradient id="orange" x1="0" y1="0" x2="1" y2="1">
      <stop offset="0" stop-color="#ff8b1a"/>
      <stop offset="1" stop-color="#ff7900"/>
    </linearGradient>
    <linearGradient id="green" x1="0" y1="0" x2="1" y2="1">
      <stop offset="0" stop-color="#178532"/>
      <stop offset="1" stop-color="#0B6623"/>
    </linearGradient>
    <filter id="softShadow" x="-20%" y="-20%" width="140%" height="140%">
      <feDropShadow dx="0" dy="16" stdDeviation="16" flood-color="#0B6623" flood-opacity="0.14"/>
    </filter>
  </defs>
  <rect width="720" height="720" rx="42" fill="#ffffff"/>
  <g filter="url(#softShadow)">
    <path d="M268 110h226l-11 78h-21c11-62-9-98-71-101-63 2-86 39-97 101h-20l-6-78Z" fill="url(#orange)"/>
    <path d="M322 188c7-80 36-119 83-119 57 0 82 40 72 119" fill="none" stroke="url(#orange)" stroke-width="23" stroke-linecap="round"/>
    <path d="M294 188h220l-39 270c-7 47-35 72-83 72H257c-53 0-80-29-72-82l39-260h70Z" fill="url(#orange)"/>
    <path d="M514 188l70 40-34 238c-6 42-31 64-73 64h-70c42 0 67-22 73-64l34-278Z" fill="url(#green)"/>
    <path d="M514 188l70 40-51 18-34-34 15-24Z" fill="#ffffff" opacity="0.96"/>
    <path d="M110 214h162c17 0 27 14 24 30-2 15-15 26-31 26H87" fill="none" stroke="url(#orange)" stroke-width="22" stroke-linecap="round"/>
    <path d="M74 303h189c18 0 30 15 27 32-3 16-17 28-34 28H111" fill="none" stroke="url(#orange)" stroke-width="22" stroke-linecap="round"/>
    <path d="M132 392h122c18 0 30 15 27 32-3 16-17 28-34 28H97" fill="none" stroke="url(#orange)" stroke-width="22" stroke-linecap="round"/>
    <circle cx="76" cy="215" r="14" fill="url(#orange)"/>
    <circle cx="88" cy="392" r="14" fill="url(#orange)"/>
    <path d="M258 255h216c20 0 33 16 30 36l-23 128c-3 19-19 32-39 32H258c-20 0-33-16-29-36l22-128c4-19 19-32 39-32Z" fill="#ffffff"/>
    <text x="370" y="373" text-anchor="middle" font-family="Poppins, Montserrat, Arial, sans-serif" font-size="96" font-weight="800" letter-spacing="-8">
      <tspan fill="#0B6623">Y</tspan><tspan fill="#FF7900">K</tspan>
    </text>
    <path d="M304 421h122" stroke="#FF7900" stroke-width="14" stroke-linecap="round"/>
    <circle cx="310" cy="475" r="22" fill="#ffffff"/>
    <circle cx="431" cy="475" r="22" fill="#ffffff"/>
    <path d="M188 505c95 70 262 69 390-67" fill="none" stroke="url(#green)" stroke-width="23" stroke-linecap="round"/>
    <path d="M546 319c77 42 48 141-43 202" fill="none" stroke="url(#orange)" stroke-width="19" stroke-linecap="round"/>
  </g>
  <g font-family="Poppins, Montserrat, Arial, sans-serif" font-weight="800">
    <text x="70" y="620" font-size="74" letter-spacing="-5">
      <tspan fill="#0B6623">Y</tspan><tspan fill="#FF7900">K</tspan><tspan fill="#0B6623" font-size="55" letter-spacing="-4">online</tspan><tspan fill="#FF7900" font-size="55" letter-spacing="-3"> Shop</tspan>
    </text>
  </g>
  <g font-family="Poppins, Montserrat, Arial, sans-serif" font-size="20" font-weight="700" letter-spacing="9" fill="#0B6623">
    <line x1="80" y1="662" x2="150" y2="662" stroke="#0B6623" stroke-width="5" stroke-linecap="round"/>
    <text x="360" y="670" text-anchor="middle">SHOP SMART, LIVE BETTER</text>
    <line x1="570" y1="662" x2="642" y2="662" stroke="#0B6623" stroke-width="5" stroke-linecap="round"/>
  </g>
  <path d="M340 689h43l-6 24h-28l-9-24Z" fill="none" stroke="#FF7900" stroke-width="5" stroke-linejoin="round"/>
  <circle cx="352" cy="716" r="4" fill="#FF7900"/>
  <circle cx="375" cy="716" r="4" fill="#FF7900"/>
</svg>