<svg xmlns="http://www.w3.org/2000/svg" viewBox="0 0 101 32" role="img" aria-label="PayPal">
  <path fill="#003087" d="M12.2 2.5H5.6c-.4 0-.8.3-.9.7L2.2 24.6c0 .4.3.8.7.8h3.2c.4 0 .7-.3.8-.6l.8-5c.1-.4.5-.7.9-.7h1.9c3.9 0 6.2-1.9 6.8-5.6.3-1.7 0-3-.8-3.9-.9-1-2.4-1.5-4.5-1.6zm.7 5.6c-.3 2.1-2 2.1-3.6 2.1h-.9l.6-4c0-.2.2-.4.5-.4h.4c1.1 0 2.1 0 2.7.6.3.3.4.8.3 1.7z"/>
  <path fill="#009CDE" d="M35.2 8.1h-3.2c-.3 0-.6.2-.7.5l-1.3 8.3-.1-.3c-.4-1.2-1.6-2-3.1-2-2.9 0-5.4 2.2-5.9 5.3-.3 1.6 0 3 .9 3.9 1 .8 2.4 1.2 4.1 1.2 2.9 0 4.5-1.8 4.5-1.8l-.1.6c-.1.4.2.7.6.7h2.9c.4 0 .7-.3.8-.6l1.7-10.5c.1-.4-.2-.7-.6-.7zm-4.5 5.3c-.3 1.6-1.5 2.7-3.1 2.7-.8 0-1.4-.2-1.8-.7-.4-.5-.6-1.2-.5-2 .2-1.6 1.5-2.7 3.1-2.7.8 0 1.4.2 1.8.7.5.4.6 1.1.5 2z"/>
  <path fill="#003087" d="M52.2 8.1h-3c-.3 0-.6.2-.7.5l-4.1 6.2-1.7-5.6c-.1-.3-.4-.5-.7-.5h-2.9c-.3 0-.6.3-.5.7l3.2 9.3-3 4.2c-.2.3 0 .8.4.8h2.9c.3 0 .6-.2.7-.5l9.6-13.9c.2-.3 0-.7-.4-.7z"/>
  <path fill="#009CDE" d="M67.8 8.1h-2.9c-.3 0-.5.2-.6.4l-3.9 11.6-.1-.3c-.6-2-2.3-3.3-4.4-3.3-2.8 0-5.1 2.1-5.6 5.1-.2 1.4 0 2.7.8 3.6.8.7 2 1.1 3.4 1.1 2.4 0 3.7-1.5 3.7-1.5l-.1.5c-.1.4.2.7.6.7h2.6c.4 0 .7-.3.8-.6l1.9-11.7c0-.4-.2-.7-.6-.7zm-3.8 5.3c-.2 1.4-1.3 2.3-2.7 2.3-.7 0-1.2-.2-1.6-.6-.4-.4-.5-1-.4-1.7.2-1.3 1.3-2.3 2.7-2.3.7 0 1.2.2 1.6.6.4.3.5.9.4 1.7z"/>
  <path fill="#003087" d="M76.7 8.1h-2.8c-.3 0-.5.2-.6.5l-3.8 11.6-.1-.3c-.6-2-2.3-3.3-4.4-3.3-2.8 0-5.1 2.1-5.6 5.1-.2 1.4 0 2.7.8 3.6.8.7 2 1.1 3.4 1.1 2.4 0 3.7-1.5 3.7-1.5l-.1.5c-.1.4.2.7.6.7h2.6c.4 0 .7-.3.8-.6l1.9-11.7c0-.4-.2-.7-.6-.7z"/>
</svg>
