<svg xmlns="http://www.w3.org/2000/svg" viewBox="0 0 60 25" role="img" aria-label="Stripe">
  <path fill="#635BFF" d="M59.64 14.28h-8.06c0 3.36-1.64 5.04-4.88 5.04-3.72 0-6.32-2.84-6.32-7.36 0-4.64 2.68-7.48 6.48-7.48 3.92 0 5.88 2.24 5.88 5.52 0 .56-.04 1.12-.12 1.68h-9.48c.16 2.08 1.32 3.24 3.36 3.24 1.48 0 2.44-.68 2.8-2.04h4.24zm-4.16-3.48c-.12-1.72-1.16-2.76-2.88-2.76-1.76 0-2.92 1.08-3.12 2.76h6zM40.08 2.8v17.92c0 2.48-1.28 3.84-3.92 3.84-2 0-3.56-.72-4.32-1.68l2.16-2.56c.48.64 1.12 1.04 1.96 1.04 1.08 0 1.64-.68 1.64-1.96V2.8h4.48zM33.56 10.48c0-4.56 2.52-7.48 6.44-7.48 2.24 0 3.72.96 4.48 2.32l-3.48 2.08c-.4-.72-1-1.16-1.88-1.16-1.56 0-2.52 1.32-2.52 3.48v.16c0 2.16.96 3.48 2.52 3.48.88 0 1.48-.44 1.88-1.16l3.48 2.08c-.76 1.36-2.24 2.32-4.48 2.32-3.92 0-6.44-2.92-6.44-7.48zM0 3.24h4.96l4.48 14.08L14 3.24h4.88L12.8 23.56H8.32L0 3.24z"/>
</svg>
