<svg xmlns="http://www.w3.org/2000/svg" viewBox="0 0 78 24" role="img" aria-label="Visa">
  <path fill="#1434CB" d="M33.5 1.2h-6.2l-3.8 21.6h6.2L33.5 1.2zm17.6 14c0-5.2-7.2-5.5-7.2-7.9 0-.8.8-1.6 2.5-1.7 1.6-.1 3.1.2 5.6.9l1.1-4.9c-1.4-.5-3.1-.9-5.5-.9-5.8 0-9.9 3.1-9.9 7.6 0 3.3 2.9 5.2 5.2 6.3 2.3 1.1 3.1 1.9 3.1 2.8 0 1.6-1.9 2.2-3.6 2.2-2.8 0-4.4-.8-5.6-1.4l-1 4.4c1.2.6 3.4 1.1 5.8 1.1 6.1 0 10.2-3 10.2-8.1zm17.6 7.6h5.6L68.8 1.2h-4.5c-.9 0-1.9.6-2.2 1.4l-7.8 20.2h6.2l1.1-3h6.7l.6 3zm-5.8-7.3l2.8-7.6 1.4 7.6h-4.2zM25.7 1.2l-5.2 21.6h6.2l5.2-21.6h-6.2z"/>
</svg>
